<svg width="14" height="10" viewBox="0 0 14 10" fill="none" xmlns="http://www.w3.org/2000/svg">
<path d="M6.09173 9.08978L0.301065 2.49466C-0.382321 1.71869 0.173081 0.5 1.21023 0.5H12.7916C13.0237 0.499802 13.2509 0.566273 13.4461 0.691455C13.6413 0.816636 13.7961 0.99522 13.892 1.20582C13.988 1.41642 14.021 1.65011 13.987 1.87891C13.9531 2.10771 13.8537 2.32191 13.7007 2.49586L7.91007 9.08858C7.79674 9.2178 7.65698 9.32137 7.50017 9.39233C7.34336 9.46329 7.17313 9.5 7.0009 9.5C6.82868 9.5 6.65844 9.46329 6.50163 9.39233C6.34482 9.32137 6.20506 9.2178 6.09173 9.08858V9.08978Z" fill="#5E7988"/>
</svg>
