<svg width="25" height="20" viewBox="0 0 25 20" fill="none" xmlns="http://www.w3.org/2000/svg">
<path d="M21.1634 1.65872C19.5697 0.892108 17.8614 0.325479 16.075 0.00327775C16.0591 2.00896e-05 16.0427 0.00211944 16.0279 0.0092855C16.0132 0.0164516 16.0009 0.0283298 15.9927 0.0432751C15.774 0.453248 15.5303 0.987658 15.3594 1.40985C13.4648 1.10791 11.5386 1.10791 9.64397 1.40985C9.4537 0.94195 9.23914 0.485717 9.00128 0.0432751C8.99322 0.0281458 8.98102 0.0159989 8.96632 0.00845533C8.95162 0.00091179 8.93511 -0.00166968 8.91899 0.00105557C7.13363 0.323257 5.42534 0.889886 3.8306 1.65761C3.81688 1.66375 3.80525 1.67422 3.79727 1.68761C0.555693 6.77061 -0.332823 11.7281 0.103623 16.6233C0.104837 16.6353 0.108326 16.6469 0.113877 16.6574C0.119429 16.6679 0.126926 16.6771 0.135913 16.6844C2.02793 18.1537 4.13823 19.2729 6.37844 19.9953C6.39406 20.0004 6.41076 20.0004 6.42637 19.9953C6.44198 19.9901 6.45577 19.9801 6.46594 19.9664C6.948 19.2788 7.37518 18.5492 7.74299 17.7854C7.74809 17.775 7.75103 17.7635 7.75161 17.7517C7.75219 17.74 7.7504 17.7282 7.74635 17.7173C7.7423 17.7063 7.73609 17.6964 7.72814 17.6882C7.72019 17.6801 7.71069 17.6738 7.70028 17.6699C7.02739 17.3996 6.3754 17.0734 5.75033 16.6944C5.7391 16.6876 5.72964 16.6779 5.72279 16.6662C5.71594 16.6545 5.71193 16.6411 5.7111 16.6274C5.71027 16.6136 5.71266 16.5998 5.71806 16.5873C5.72345 16.5747 5.73168 16.5638 5.742 16.5555C5.87325 16.4522 6.00449 16.3444 6.12949 16.2367C6.14074 16.227 6.15429 16.2208 6.16864 16.2188C6.18298 16.2169 6.19756 16.2192 6.21074 16.2255C10.3012 18.1854 14.7313 18.1854 18.7739 16.2255C18.7871 16.2188 18.8019 16.2162 18.8164 16.218C18.831 16.2197 18.8447 16.2258 18.8562 16.2355C18.9812 16.3444 19.1114 16.4522 19.2437 16.5555C19.2541 16.5637 19.2625 16.5744 19.268 16.5869C19.2736 16.5993 19.2762 16.613 19.2756 16.6268C19.275 16.6405 19.2712 16.6539 19.2645 16.6657C19.2578 16.6775 19.2485 16.6874 19.2374 16.6944C18.6145 17.0766 17.9666 17.3999 17.2865 17.6688C17.276 17.6728 17.2665 17.6792 17.2585 17.6875C17.2506 17.6958 17.2444 17.7058 17.2403 17.7168C17.2363 17.7278 17.2345 17.7397 17.2351 17.7515C17.2357 17.7633 17.2386 17.7749 17.2438 17.7854C17.6187 18.5487 18.0479 19.2753 18.5198 19.9653C18.5296 19.9795 18.5432 19.99 18.5589 19.9956C18.5746 20.0012 18.5914 20.0015 18.6073 19.9964C20.8513 19.2761 22.965 18.1563 24.8592 16.6844C24.8684 16.6775 24.8762 16.6686 24.8819 16.6582C24.8877 16.6479 24.8913 16.6364 24.8925 16.6244C25.4133 10.9648 24.0196 6.04732 21.1957 1.68983C21.1888 1.67567 21.1773 1.66463 21.1634 1.65872ZM8.35443 13.6424C7.12321 13.6424 6.10762 12.4547 6.10762 10.9981C6.10762 9.54043 7.10342 8.35384 8.35443 8.35384C9.61481 8.35384 10.621 9.55043 10.6012 10.9981C10.6012 12.4558 9.60543 13.6424 8.35443 13.6424ZM16.6615 13.6424C15.4292 13.6424 14.4147 12.4547 14.4147 10.9981C14.4147 9.54043 15.4094 8.35384 16.6615 8.35384C17.9219 8.35384 18.9281 9.55043 18.9083 10.9981C18.9083 12.4558 17.9229 13.6424 16.6615 13.6424Z" fill="#B6C6D0"/>
</svg>
