<svg width="28" height="34" viewBox="0 0 28 34" fill="none" xmlns="http://www.w3.org/2000/svg">
<path d="M26.7219 14.7942C26.7225 14.7942 26.7227 14.7935 26.7222 14.7931L6.20561 0.731157C3.79148 -0.928493 1.39463e-06 0.42034 1.50473e-06 2.93914L2.73416e-06 31.0652C-0.00061416 31.6289 0.206186 32.1808 0.595638 32.6548C0.985091 33.1288 1.54069 33.5048 2.19589 33.7378C2.8511 33.9708 3.57814 34.0509 4.28994 33.9685C5.00175 33.8861 5.66815 33.6447 6.20935 33.2732L26.72 19.2102C27.122 18.9349 27.4442 18.5955 27.665 18.2147C27.8858 17.8339 28 17.4204 28 17.0022C28 16.5839 27.8858 16.1705 27.665 15.7897C27.4445 15.4093 27.1229 15.0703 26.7216 14.7953C26.7211 14.7949 26.7213 14.7942 26.7219 14.7942Z" fill="#DC7533"/>
</svg>
