<svg width="25" height="26" viewBox="0 0 25 26" fill="none" xmlns="http://www.w3.org/2000/svg">
<path d="M12.5 0C5.59792 0 0 5.82183 0 13C0 20.1782 5.59792 26 12.5 26C19.4021 26 25 20.1782 25 13C25 5.82183 19.4052 0 12.5 0ZM6.16667 13.4366L6.21979 13.3488L9.47292 8.05783C9.48381 8.04044 9.499 8.02641 9.51689 8.01721C9.53478 8.00801 9.55472 8.00397 9.57462 8.00552C9.59453 8.00707 9.61367 8.01415 9.63004 8.02602C9.64641 8.03789 9.65942 8.05411 9.66771 8.073C10.2094 9.33942 10.6802 10.9146 10.4594 11.895C10.3677 12.298 10.1104 12.844 9.81979 13.3488C9.78251 13.4227 9.74184 13.4946 9.69792 13.5644C9.6874 13.58 9.67332 13.5926 9.65696 13.6011C9.64059 13.6096 9.62245 13.6138 9.60417 13.6132H6.26354C6.2436 13.6135 6.22395 13.6082 6.20668 13.5978C6.1894 13.5875 6.17515 13.5724 6.16543 13.5543C6.1557 13.5362 6.15088 13.5157 6.15147 13.495C6.15205 13.4742 6.15802 13.4541 6.16875 13.4366H6.16667ZM20.6604 15.2566C20.6607 15.2797 20.6544 15.3024 20.6424 15.3219C20.6303 15.3413 20.6131 15.3567 20.5927 15.366C20.3396 15.4776 19.4781 15.8914 19.1198 16.4082C18.2052 17.732 17.5073 19.6257 15.9448 19.6257H9.43021C8.88017 19.6248 8.33569 19.5112 7.82787 19.2915C7.32006 19.0717 6.85887 18.7499 6.47066 18.3447C6.08245 17.9394 5.77483 17.4586 5.56538 16.9297C5.35594 16.4007 5.24877 15.834 5.25 15.262V15.184C5.25 15.1212 5.3 15.0692 5.3625 15.0692H8.99271C9.06563 15.0692 9.11771 15.1374 9.1125 15.2122C9.08542 15.457 9.13021 15.7094 9.24271 15.938C9.45729 16.393 9.90521 16.6768 10.3875 16.6768H12.1854V15.2176H10.4062C10.3854 15.2174 10.365 15.2112 10.3473 15.1998C10.3295 15.1884 10.3151 15.1722 10.3056 15.1529C10.296 15.1337 10.2917 15.112 10.2931 15.0904C10.2945 15.0688 10.3016 15.0479 10.3135 15.0302L10.3792 14.9327C10.5458 14.6824 10.7865 14.2978 11.026 13.858C11.1885 13.5612 11.3469 13.2448 11.474 12.9263C11.499 12.87 11.5187 12.8104 11.5417 12.753C11.576 12.6512 11.6115 12.5558 11.6365 12.4616C11.661 12.3817 11.6836 12.3011 11.7042 12.22C11.7635 11.9492 11.7885 11.6632 11.7885 11.3674C11.7885 11.2504 11.7844 11.128 11.774 11.0132C11.7688 10.8864 11.7531 10.7586 11.7385 10.6318C11.7269 10.5184 11.7102 10.4056 11.6885 10.2938C11.6605 10.1236 11.6265 9.95447 11.5865 9.78683L11.5719 9.72183C11.5406 9.60483 11.5135 9.49433 11.4781 9.37842C11.3789 9.02244 11.2649 8.67111 11.1365 8.32542C11.0917 8.19538 11.0424 8.0671 10.9885 7.94083C10.9135 7.748 10.8365 7.57358 10.7667 7.41C10.7319 7.33992 10.6993 7.26875 10.6687 7.19658C10.6349 7.11873 10.5991 7.04179 10.5615 6.96583C10.5365 6.90842 10.5063 6.85317 10.4865 6.80117L10.2667 6.38083C10.2365 6.32342 10.2865 6.253 10.3469 6.27142L11.7219 6.65817H11.7323L11.9125 6.71233L12.1125 6.77083L12.1854 6.79142V5.94317C12.1854 5.53258 12.5 5.2 12.8927 5.2C12.9854 5.19974 13.0773 5.21899 13.1627 5.2566C13.248 5.29421 13.3252 5.34939 13.3896 5.41883C13.5226 5.55835 13.5974 5.74671 13.5979 5.94317V7.20417L13.7448 7.24642C13.7552 7.25183 13.7677 7.25725 13.7771 7.26483C13.8125 7.29083 13.8646 7.332 13.9302 7.384C13.9823 7.42517 14.0375 7.47717 14.1021 7.53242C14.3078 7.7067 14.5072 7.88883 14.7 8.07842C14.9229 8.294 15.1729 8.54642 15.4125 8.827C15.4802 8.90717 15.5448 8.98517 15.6125 9.07183C15.6771 9.15742 15.75 9.24083 15.8104 9.32317C15.8927 9.43583 15.9771 9.55283 16.0552 9.67417C16.0896 9.73158 16.1323 9.79117 16.1646 9.84858C16.2646 10.0024 16.35 10.1606 16.4323 10.3198C16.4677 10.3924 16.5021 10.4726 16.5323 10.5506C16.625 10.764 16.6979 10.9796 16.7427 11.1984C16.7575 11.2449 16.7677 11.2928 16.7729 11.3414V11.3523C16.7875 11.414 16.7927 11.4823 16.7979 11.5516C16.8272 11.8718 16.7896 12.1948 16.6875 12.4984C16.6552 12.5894 16.625 12.6826 16.5854 12.7736C16.5073 12.9578 16.4177 13.1452 16.3104 13.3174C16.275 13.3824 16.2323 13.4496 16.1927 13.5146C16.1479 13.5828 16.1 13.6478 16.0604 13.7096C16.0031 13.7916 15.943 13.8715 15.8802 13.949C15.825 14.027 15.7698 14.105 15.7073 14.1754C15.6229 14.2816 15.5406 14.3813 15.4521 14.4766C15.4021 14.5394 15.3479 14.6044 15.2896 14.6608C15.2354 14.7258 15.1771 14.7832 15.1271 14.8352C15.0396 14.9262 14.9708 14.9944 14.9104 15.054L14.7677 15.1862C14.7478 15.2069 14.7209 15.2186 14.6927 15.2187H13.5979V16.6768H14.975C15.2823 16.6768 15.575 16.5642 15.8125 16.354C15.8927 16.2814 16.2448 15.964 16.6625 15.4852C16.6761 15.4689 16.6943 15.4575 16.7146 15.4527L20.5167 14.3076C20.5334 14.3026 20.5509 14.3016 20.568 14.3049C20.5851 14.3081 20.6013 14.3154 20.6152 14.3262C20.6291 14.337 20.6405 14.351 20.6483 14.3672C20.6562 14.3833 20.6603 14.4011 20.6604 14.4192V15.2566Z" fill="#B6C6D0"/>
</svg>
