<svg width="11" height="18" viewBox="0 0 11 18" fill="none" xmlns="http://www.w3.org/2000/svg">
<path d="M0.501376 7.83223L8.56208 0.387083C9.51049 -0.491555 11 0.222533 11 1.55601L11 16.4463C11.0002 16.7447 10.919 17.0369 10.766 17.2879C10.613 17.5388 10.3947 17.7379 10.1373 17.8612C9.87993 17.9846 9.5943 18.0269 9.31467 17.9833C9.03503 17.9397 8.77323 17.8119 8.56061 17.6152L0.502846 10.1701C0.344912 10.0244 0.218332 9.84469 0.131602 9.64308C0.0448728 9.44146 5.50542e-07 9.22259 5.60221e-07 9.00116C5.699e-07 8.77973 0.0448729 8.56086 0.131602 8.35924C0.218332 8.15763 0.344912 7.97793 0.502846 7.83223L0.501376 7.83223Z" fill="#DC7533"/>
</svg>
