<svg width="11" height="18" viewBox="0 0 11 18" fill="none" xmlns="http://www.w3.org/2000/svg">
<path d="M10.4986 7.83223L2.43792 0.387083C1.48951 -0.491555 5.504e-07 0.222533 6.08688e-07 1.55601L1.25956e-06 16.4463C-0.000241088 16.7447 0.0810017 17.0369 0.234001 17.2879C0.387 17.5388 0.60527 17.7379 0.862672 17.8612C1.12007 17.9846 1.4057 18.0269 1.68533 17.9833C1.96497 17.9397 2.22677 17.8119 2.43939 17.6152L10.4972 10.1701C10.6551 10.0244 10.7817 9.84469 10.8684 9.64308C10.9551 9.44146 11 9.22259 11 9.00116C11 8.77973 10.9551 8.56086 10.8684 8.35924C10.7817 8.15763 10.6551 7.97793 10.4972 7.83223L10.4986 7.83223Z" fill="#DC7533"/>
</svg>
