<svg width="14" height="9" viewBox="0 0 14 9" fill="none" xmlns="http://www.w3.org/2000/svg">
<path d="M6.09173 8.58978L0.301065 1.99466C-0.382321 1.21869 0.173081 4.42369e-07 1.21023 4.42369e-07H12.7916C13.0237 -0.000197853 13.2509 0.0662735 13.4461 0.191455C13.6413 0.316636 13.7961 0.49522 13.892 0.705822C13.988 0.916423 14.021 1.15011 13.987 1.37891C13.9531 1.60771 13.8537 1.82191 13.7007 1.99586L7.91007 8.58858C7.79674 8.7178 7.65698 8.82137 7.50017 8.89233C7.34336 8.96329 7.17313 9 7.0009 9C6.82868 9 6.65844 8.96329 6.50163 8.89233C6.34482 8.82137 6.20506 8.7178 6.09173 8.58858V8.58978Z" fill="white"/>
</svg>
