<svg width="56" height="84" viewBox="0 0 56 84" fill="none" xmlns="http://www.w3.org/2000/svg">
<path d="M54.7823 66.4823C44.1994 76.9738 29.9713 82.8591 15.2828 83.132C11.7434 83.1978 8.17497 82.9371 4.62718 82.3359C2.41987 81.9628 0.730229 80.1679 0.489851 77.943C0.250473 75.7181 2.55135 73.9431 4.62718 73.1074C10.5032 70.7409 50.2471 22.6047 54.7823 18.1077L54.7823 66.4823Z" fill="#D57333"/>
<path d="M55.2931 61.6473C44.7101 72.1387 30.4821 78.024 15.7936 78.297C12.2542 78.3628 8.68575 78.102 5.13797 77.5008C2.93065 77.1278 1.24101 75.3329 1.00064 73.1079C0.761257 70.883 1.00066 69.9387 5.13796 68.2724C11.014 65.9058 56.7554 7.00048 55.2933 0.500453L55.2931 61.6473Z" fill="#FBF3EE"/>
</svg>
