<svg width="1920" height="2013" viewBox="0 0 1920 2013" fill="none" xmlns="http://www.w3.org/2000/svg">
<g filter="url(#filter0_d_522_235)">
<path d="M-55.3947 1608.09L1936.35 1608.09L1936.35 715.959L-55.3947 715.959L-55.3947 1608.09Z" fill="#FFDEBF"/>
<path d="M2121 1590.46C2121 1721.66 2003.73 1828.02 1859.06 1828.02C1714.4 1828.02 1597.13 1721.66 1597.13 1590.46C1597.13 1459.26 1714.4 1352.9 1859.06 1352.9C2003.73 1352.9 2121 1459.26 2121 1590.46Z" fill="#FFDEBF"/>
<path d="M1741.32 1643.36C1741.32 1814.1 1588.75 1952.5 1400.55 1952.5C1212.34 1952.5 1059.77 1814.1 1059.77 1643.36C1059.77 1472.63 1212.34 1334.23 1400.55 1334.23C1588.75 1334.23 1741.32 1472.63 1741.32 1643.36Z" fill="#FFDEBF"/>
<path d="M1151.06 1694.2C1151.06 1796.75 1059.33 1879.88 946.182 1879.88C833.03 1879.88 741.303 1796.75 741.303 1694.2C741.303 1591.64 833.03 1508.51 946.182 1508.51C1059.33 1508.51 1151.06 1591.64 1151.06 1694.2Z" fill="#FFDEBF"/>
<path d="M861.637 1642.33C861.637 1744.88 769.909 1828.02 656.757 1828.02C543.605 1828.02 451.877 1744.88 451.877 1642.33C451.877 1539.77 543.605 1456.64 656.757 1456.64C769.909 1456.64 861.637 1539.77 861.637 1642.33Z" fill="#FFDEBF"/>
<path d="M590.884 1694.2C590.884 1810.5 486.849 1904.78 358.514 1904.78C230.18 1904.78 126.144 1810.5 126.144 1694.2C126.144 1577.89 230.18 1483.61 358.514 1483.61C486.849 1483.61 590.884 1577.89 590.884 1694.2Z" fill="#FFDEBF"/>
<path d="M253.74 1590.46C253.74 1706.76 149.705 1801.04 21.3701 1801.04C-106.964 1801.04 -211 1706.76 -211 1590.46C-211 1474.16 -106.964 1379.87 21.3702 1379.87C149.705 1379.87 253.74 1474.16 253.74 1590.46Z" fill="#FFDEBF"/>
</g>
<path d="M-55.3947 1560.38L1936.35 1560.38L1936.35 668.24L-55.3947 668.24L-55.3947 1560.38Z" fill="#FFCEA2"/>
<path d="M2121 1542.74C2121 1673.94 2003.73 1780.3 1859.06 1780.3C1714.4 1780.3 1597.13 1673.94 1597.13 1542.74C1597.13 1411.54 1714.4 1305.18 1859.06 1305.18C2003.73 1305.18 2121 1411.54 2121 1542.74Z" fill="#FFCEA2"/>
<path d="M1741.32 1595.65C1741.32 1766.38 1588.75 1904.78 1400.55 1904.78C1212.34 1904.78 1059.77 1766.38 1059.77 1595.65C1059.77 1424.92 1212.34 1286.51 1400.55 1286.51C1588.75 1286.51 1741.32 1424.92 1741.32 1595.65Z" fill="#FFCEA2"/>
<path d="M1151.06 1646.48C1151.06 1749.03 1059.33 1832.17 946.182 1832.17C833.03 1832.17 741.303 1749.03 741.303 1646.48C741.303 1543.92 833.03 1460.79 946.182 1460.79C1059.33 1460.79 1151.06 1543.92 1151.06 1646.48Z" fill="#FFCEA2"/>
<path d="M861.637 1594.61C861.637 1697.16 769.909 1780.3 656.757 1780.3C543.605 1780.3 451.877 1697.16 451.877 1594.61C451.877 1492.06 543.605 1408.92 656.757 1408.92C769.909 1408.92 861.637 1492.06 861.637 1594.61Z" fill="#FFCEA2"/>
<path d="M590.884 1646.48C590.884 1762.78 486.849 1857.06 358.514 1857.06C230.18 1857.06 126.144 1762.78 126.144 1646.48C126.144 1530.17 230.18 1435.89 358.514 1435.89C486.849 1435.89 590.884 1530.17 590.884 1646.48Z" fill="#FFCEA2"/>
<path d="M253.74 1542.74C253.74 1659.04 149.705 1753.33 21.3701 1753.33C-106.964 1753.33 -211 1659.04 -211 1542.74C-211 1426.44 -106.964 1332.15 21.3702 1332.15C149.705 1332.15 253.74 1426.44 253.74 1542.74Z" fill="#FFCEA2"/>
<path d="M-55.3947 1484.03L1936.35 1484.03L1936.35 0.499984L-55.3946 0.499688L-55.3947 1484.03Z" fill="url(#paint0_linear_522_235)"/>
<path d="M2121 1465.42C2121 1603.88 2003.73 1716.12 1859.06 1716.12C1714.4 1716.12 1597.13 1603.88 1597.13 1465.42C1597.13 1326.95 1714.4 1214.71 1859.06 1214.71C2003.73 1214.71 2121 1326.95 2121 1465.42Z" fill="url(#paint1_linear_522_235)"/>
<path d="M1741.32 1521.25C1741.32 1701.43 1588.75 1847.5 1400.55 1847.5C1212.34 1847.5 1059.77 1701.43 1059.77 1521.25C1059.77 1341.07 1212.34 1195 1400.55 1195C1588.75 1195 1741.32 1341.07 1741.32 1521.25Z" fill="url(#paint2_linear_522_235)"/>
<path d="M1151.06 1574.9C1151.06 1683.13 1059.33 1770.86 946.182 1770.86C833.03 1770.86 741.303 1683.13 741.303 1574.9C741.303 1466.66 833.03 1378.93 946.182 1378.93C1059.33 1378.93 1151.06 1466.66 1151.06 1574.9Z" fill="url(#paint3_linear_522_235)"/>
<path d="M861.637 1520.16C861.637 1628.39 769.909 1716.12 656.757 1716.12C543.605 1716.12 451.877 1628.39 451.877 1520.16C451.877 1411.92 543.605 1324.19 656.757 1324.19C769.909 1324.19 861.637 1411.92 861.637 1520.16Z" fill="url(#paint4_linear_522_235)"/>
<path d="M590.884 1574.9C590.884 1697.64 486.849 1797.14 358.514 1797.14C230.18 1797.14 126.144 1697.64 126.144 1574.89C126.144 1452.15 230.18 1352.65 358.514 1352.65C486.849 1352.65 590.884 1452.15 590.884 1574.9Z" fill="url(#paint5_linear_522_235)"/>
<path d="M253.74 1465.42C253.74 1588.16 149.705 1687.66 21.3701 1687.66C-106.964 1687.66 -211 1588.16 -211 1465.42C-211 1342.67 -106.964 1243.17 21.3702 1243.17C149.705 1243.17 253.74 1342.67 253.74 1465.42Z" fill="url(#paint6_linear_522_235)"/>
<defs>
<filter id="filter0_d_522_235" x="-298" y="655.959" width="2452" height="1356.54" filterUnits="userSpaceOnUse" color-interpolation-filters="sRGB">
<feFlood flood-opacity="0" result="BackgroundImageFix"/>
<feColorMatrix in="SourceAlpha" type="matrix" values="0 0 0 0 0 0 0 0 0 0 0 0 0 0 0 0 0 0 127 0" result="hardAlpha"/>
<feOffset dx="-27"/>
<feGaussianBlur stdDeviation="30"/>
<feComposite in2="hardAlpha" operator="out"/>
<feColorMatrix type="matrix" values="0 0 0 0 0 0 0 0 0 0 0 0 0 0 0 0 0 0 0.1 0"/>
<feBlend mode="normal" in2="BackgroundImageFix" result="effect1_dropShadow_522_235"/>
<feBlend mode="normal" in="SourceGraphic" in2="effect1_dropShadow_522_235" result="shape"/>
</filter>
<linearGradient id="paint0_linear_522_235" x1="982.5" y1="226" x2="1113.81" y2="2802.81" gradientUnits="userSpaceOnUse">
<stop stop-color="#FFCC9E"/>
<stop offset="1" stop-color="#FFDFC1"/>
</linearGradient>
<linearGradient id="paint1_linear_522_235" x1="982.5" y1="226" x2="1113.81" y2="2802.81" gradientUnits="userSpaceOnUse">
<stop stop-color="#FFCC9E"/>
<stop offset="1" stop-color="#FFDFC1"/>
</linearGradient>
<linearGradient id="paint2_linear_522_235" x1="982.5" y1="226" x2="1113.81" y2="2802.81" gradientUnits="userSpaceOnUse">
<stop stop-color="#FFCC9E"/>
<stop offset="1" stop-color="#FFDFC1"/>
</linearGradient>
<linearGradient id="paint3_linear_522_235" x1="982.5" y1="226" x2="1113.81" y2="2802.81" gradientUnits="userSpaceOnUse">
<stop stop-color="#FFCC9E"/>
<stop offset="1" stop-color="#FFDFC1"/>
</linearGradient>
<linearGradient id="paint4_linear_522_235" x1="982.5" y1="226" x2="1113.81" y2="2802.81" gradientUnits="userSpaceOnUse">
<stop stop-color="#FFCC9E"/>
<stop offset="1" stop-color="#FFDFC1"/>
</linearGradient>
<linearGradient id="paint5_linear_522_235" x1="982.5" y1="226" x2="1113.81" y2="2802.81" gradientUnits="userSpaceOnUse">
<stop stop-color="#FFCC9E"/>
<stop offset="1" stop-color="#FFDFC1"/>
</linearGradient>
<linearGradient id="paint6_linear_522_235" x1="982.5" y1="226" x2="1113.81" y2="2802.81" gradientUnits="userSpaceOnUse">
<stop stop-color="#FFCC9E"/>
<stop offset="1" stop-color="#FFDFC1"/>
</linearGradient>
</defs>
</svg>
